<mxfile host="www.draw.io" modified="2020-01-01T11:18:33.425Z" agent="Mozilla/5.0 (Macintosh; Intel Mac OS X 10_14_5) AppleWebKit/605.1.15 (KHTML, like Gecko) Version/12.1.1 Safari/605.1.15" etag="cGxsgcZoAiiIUVWHet-0" version="12.4.8" type="github">
  <diagram id="bZdrGn_u7kSr5fdO9PJD" name="第 1 页">
    <mxGraphModel dx="1100" dy="709" grid="0" gridSize="10" guides="1" tooltips="1" connect="1" arrows="1" fold="1" page="1" pageScale="1" pageWidth="827" pageHeight="1169" math="0" shadow="0">
      <root>
        <mxCell id="0"/>
        <mxCell id="1" parent="0"/>
        <mxCell id="2eYeX1Lvd2iA7qmvY2sF-1" value="feature_3.0_xxx" style="rounded=0;whiteSpace=wrap;html=1;fillColor=#dae8fc;strokeColor=#6c8ebf;" parent="1" vertex="1">
          <mxGeometry x="123" y="90" width="100" height="40" as="geometry"/>
        </mxCell>
        <mxCell id="2eYeX1Lvd2iA7qmvY2sF-2" value="master" style="rounded=0;whiteSpace=wrap;html=1;fillColor=#dae8fc;strokeColor=#6c8ebf;" parent="1" vertex="1">
          <mxGeometry x="467" y="90" width="100" height="40" as="geometry"/>
        </mxCell>
        <mxCell id="2eYeX1Lvd2iA7qmvY2sF-3" value="develop" style="rounded=0;whiteSpace=wrap;html=1;fillColor=#dae8fc;strokeColor=#6c8ebf;" parent="1" vertex="1">
          <mxGeometry x="353" y="90" width="100" height="40" as="geometry"/>
        </mxCell>
        <mxCell id="2eYeX1Lvd2iA7qmvY2sF-4" value="feature_3.0" style="rounded=0;whiteSpace=wrap;html=1;fillColor=#dae8fc;strokeColor=#6c8ebf;" parent="1" vertex="1">
          <mxGeometry x="237" y="90" width="100" height="40" as="geometry"/>
        </mxCell>
        <mxCell id="2eYeX1Lvd2iA7qmvY2sF-5" value="release" style="rounded=0;whiteSpace=wrap;html=1;fillColor=#dae8fc;strokeColor=#6c8ebf;" parent="1" vertex="1">
          <mxGeometry x="583" y="90" width="100" height="40" as="geometry"/>
        </mxCell>
        <mxCell id="2eYeX1Lvd2iA7qmvY2sF-6" value="" style="endArrow=classic;html=1;strokeWidth=1;fillColor=#647687;strokeColor=#ADADAD;" parent="1" edge="1">
          <mxGeometry width="50" height="50" relative="1" as="geometry">
            <mxPoint x="110" y="90" as="sourcePoint"/>
            <mxPoint x="110" y="550" as="targetPoint"/>
          </mxGeometry>
        </mxCell>
        <mxCell id="2eYeX1Lvd2iA7qmvY2sF-8" value="" style="ellipse;whiteSpace=wrap;html=1;aspect=fixed;strokeWidth=2;fillColor=#f0a30a;strokeColor=#BD7000;fontColor=#ffffff;" parent="1" vertex="1">
          <mxGeometry x="275" y="189" width="20" height="20" as="geometry"/>
        </mxCell>
        <mxCell id="2eYeX1Lvd2iA7qmvY2sF-9" value="" style="endArrow=classic;html=1;strokeColor=#000000;strokeWidth=1;" parent="1" edge="1">
          <mxGeometry width="50" height="50" relative="1" as="geometry">
            <mxPoint x="499" y="155" as="sourcePoint"/>
            <mxPoint x="409" y="165" as="targetPoint"/>
          </mxGeometry>
        </mxCell>
        <mxCell id="tTkCAmkSZLz3tP1ibJDq-10" value="branch" style="text;html=1;align=center;verticalAlign=middle;resizable=0;points=[];labelBackgroundColor=#ffffff;" vertex="1" connectable="0" parent="2eYeX1Lvd2iA7qmvY2sF-9">
          <mxGeometry x="0.0634" y="-1" relative="1" as="geometry">
            <mxPoint as="offset"/>
          </mxGeometry>
        </mxCell>
        <mxCell id="2eYeX1Lvd2iA7qmvY2sF-10" value="" style="ellipse;whiteSpace=wrap;html=1;aspect=fixed;strokeWidth=2;fillColor=#0050ef;strokeColor=#001DBC;fontColor=#ffffff;" parent="1" vertex="1">
          <mxGeometry x="504" y="145" width="20" height="20" as="geometry"/>
        </mxCell>
        <mxCell id="2eYeX1Lvd2iA7qmvY2sF-12" value="" style="ellipse;whiteSpace=wrap;html=1;aspect=fixed;strokeWidth=2;fillColor=#60a917;strokeColor=#2D7600;fontColor=#ffffff;" parent="1" vertex="1">
          <mxGeometry x="386" y="159" width="20" height="20" as="geometry"/>
        </mxCell>
        <mxCell id="2eYeX1Lvd2iA7qmvY2sF-13" value="" style="endArrow=classic;html=1;strokeColor=#000000;strokeWidth=1;" parent="1" edge="1">
          <mxGeometry width="50" height="50" relative="1" as="geometry">
            <mxPoint x="379" y="174" as="sourcePoint"/>
            <mxPoint x="299" y="194" as="targetPoint"/>
          </mxGeometry>
        </mxCell>
        <mxCell id="2eYeX1Lvd2iA7qmvY2sF-14" value="" style="ellipse;whiteSpace=wrap;html=1;aspect=fixed;strokeWidth=2;fillColor=#f0a30a;strokeColor=#BD7000;fontColor=#ffffff;" parent="1" vertex="1">
          <mxGeometry x="275" y="289" width="20" height="20" as="geometry"/>
        </mxCell>
        <mxCell id="2eYeX1Lvd2iA7qmvY2sF-15" value="" style="endArrow=classic;html=1;strokeColor=#000000;strokeWidth=1;" parent="1" edge="1">
          <mxGeometry width="50" height="50" relative="1" as="geometry">
            <mxPoint x="284" y="216" as="sourcePoint"/>
            <mxPoint x="284" y="286" as="targetPoint"/>
          </mxGeometry>
        </mxCell>
        <mxCell id="2eYeX1Lvd2iA7qmvY2sF-16" value="" style="ellipse;whiteSpace=wrap;html=1;aspect=fixed;strokeWidth=2;fillColor=#60a917;strokeColor=#2D7600;fontColor=#ffffff;" parent="1" vertex="1">
          <mxGeometry x="386" y="259" width="20" height="20" as="geometry"/>
        </mxCell>
        <mxCell id="2eYeX1Lvd2iA7qmvY2sF-17" value="" style="endArrow=classic;html=1;strokeColor=#000000;strokeWidth=1;" parent="1" edge="1">
          <mxGeometry width="50" height="50" relative="1" as="geometry">
            <mxPoint x="395.5" y="184" as="sourcePoint"/>
            <mxPoint x="395.5" y="254" as="targetPoint"/>
          </mxGeometry>
        </mxCell>
        <mxCell id="2eYeX1Lvd2iA7qmvY2sF-18" value="" style="endArrow=classic;html=1;strokeColor=#000000;strokeWidth=1;" parent="1" edge="1">
          <mxGeometry width="50" height="50" relative="1" as="geometry">
            <mxPoint x="301" y="295" as="sourcePoint"/>
            <mxPoint x="379" y="275" as="targetPoint"/>
          </mxGeometry>
        </mxCell>
        <mxCell id="2eYeX1Lvd2iA7qmvY2sF-19" value="" style="ellipse;whiteSpace=wrap;html=1;aspect=fixed;strokeWidth=2;fillColor=#f0a30a;strokeColor=#BD7000;fontColor=#ffffff;" parent="1" vertex="1">
          <mxGeometry x="276" y="387" width="20" height="20" as="geometry"/>
        </mxCell>
        <mxCell id="2eYeX1Lvd2iA7qmvY2sF-20" value="" style="endArrow=classic;html=1;strokeColor=#000000;strokeWidth=1;" parent="1" edge="1">
          <mxGeometry width="50" height="50" relative="1" as="geometry">
            <mxPoint x="285" y="314" as="sourcePoint"/>
            <mxPoint x="285" y="384" as="targetPoint"/>
          </mxGeometry>
        </mxCell>
        <mxCell id="tTkCAmkSZLz3tP1ibJDq-20" value="commit" style="text;html=1;align=center;verticalAlign=middle;resizable=0;points=[];labelBackgroundColor=#ffffff;" vertex="1" connectable="0" parent="2eYeX1Lvd2iA7qmvY2sF-20">
          <mxGeometry y="-1" relative="1" as="geometry">
            <mxPoint as="offset"/>
          </mxGeometry>
        </mxCell>
        <mxCell id="2eYeX1Lvd2iA7qmvY2sF-21" value="" style="ellipse;whiteSpace=wrap;html=1;aspect=fixed;strokeWidth=2;fillColor=#60a917;strokeColor=#2D7600;fontColor=#ffffff;" parent="1" vertex="1">
          <mxGeometry x="387" y="357" width="20" height="20" as="geometry"/>
        </mxCell>
        <mxCell id="2eYeX1Lvd2iA7qmvY2sF-22" value="" style="endArrow=classic;html=1;strokeColor=#000000;strokeWidth=1;" parent="1" edge="1">
          <mxGeometry width="50" height="50" relative="1" as="geometry">
            <mxPoint x="302" y="393" as="sourcePoint"/>
            <mxPoint x="380" y="373" as="targetPoint"/>
          </mxGeometry>
        </mxCell>
        <mxCell id="2eYeX1Lvd2iA7qmvY2sF-23" value="" style="endArrow=classic;html=1;strokeColor=#000000;strokeWidth=1;" parent="1" edge="1">
          <mxGeometry width="50" height="50" relative="1" as="geometry">
            <mxPoint x="396.5" y="284" as="sourcePoint"/>
            <mxPoint x="396.5" y="354" as="targetPoint"/>
          </mxGeometry>
        </mxCell>
        <mxCell id="tTkCAmkSZLz3tP1ibJDq-25" value="commit" style="text;html=1;align=center;verticalAlign=middle;resizable=0;points=[];labelBackgroundColor=#ffffff;" vertex="1" connectable="0" parent="2eYeX1Lvd2iA7qmvY2sF-23">
          <mxGeometry x="0.0286" y="-1" relative="1" as="geometry">
            <mxPoint as="offset"/>
          </mxGeometry>
        </mxCell>
        <mxCell id="2eYeX1Lvd2iA7qmvY2sF-24" value="" style="endArrow=classic;html=1;strokeColor=#000000;strokeWidth=1;" parent="1" edge="1">
          <mxGeometry width="50" height="50" relative="1" as="geometry">
            <mxPoint x="419" y="366" as="sourcePoint"/>
            <mxPoint x="499" y="346" as="targetPoint"/>
          </mxGeometry>
        </mxCell>
        <mxCell id="2eYeX1Lvd2iA7qmvY2sF-25" value="" style="ellipse;whiteSpace=wrap;html=1;aspect=fixed;strokeWidth=2;fillColor=#0050ef;strokeColor=#001DBC;fontColor=#ffffff;" parent="1" vertex="1">
          <mxGeometry x="504" y="332" width="20" height="20" as="geometry"/>
        </mxCell>
        <mxCell id="2eYeX1Lvd2iA7qmvY2sF-26" value="" style="endArrow=classic;html=1;strokeColor=#000000;strokeWidth=1;" parent="1" edge="1">
          <mxGeometry width="50" height="50" relative="1" as="geometry">
            <mxPoint x="513.5" y="165" as="sourcePoint"/>
            <mxPoint x="514" y="330" as="targetPoint"/>
          </mxGeometry>
        </mxCell>
        <mxCell id="2eYeX1Lvd2iA7qmvY2sF-28" value="" style="endArrow=classic;html=1;strokeColor=#000000;strokeWidth=1;" parent="1" edge="1">
          <mxGeometry width="50" height="50" relative="1" as="geometry">
            <mxPoint x="414" y="466" as="sourcePoint"/>
            <mxPoint x="497" y="461" as="targetPoint"/>
          </mxGeometry>
        </mxCell>
        <mxCell id="2eYeX1Lvd2iA7qmvY2sF-29" value="" style="ellipse;whiteSpace=wrap;html=1;aspect=fixed;strokeWidth=2;fillColor=#0050ef;strokeColor=#001DBC;fontColor=#ffffff;" parent="1" vertex="1">
          <mxGeometry x="504" y="451" width="20" height="20" as="geometry"/>
        </mxCell>
        <mxCell id="2eYeX1Lvd2iA7qmvY2sF-30" value="" style="endArrow=classic;html=1;strokeColor=#000000;strokeWidth=1;" parent="1" edge="1">
          <mxGeometry width="50" height="50" relative="1" as="geometry">
            <mxPoint x="529" y="349" as="sourcePoint"/>
            <mxPoint x="618" y="373" as="targetPoint"/>
          </mxGeometry>
        </mxCell>
        <mxCell id="2eYeX1Lvd2iA7qmvY2sF-31" value="" style="endArrow=classic;html=1;strokeColor=#000000;strokeWidth=1;" parent="1" edge="1">
          <mxGeometry width="50" height="50" relative="1" as="geometry">
            <mxPoint x="514" y="359" as="sourcePoint"/>
            <mxPoint x="514" y="443" as="targetPoint"/>
          </mxGeometry>
        </mxCell>
        <mxCell id="tTkCAmkSZLz3tP1ibJDq-26" value="commit" style="text;html=1;align=center;verticalAlign=middle;resizable=0;points=[];labelBackgroundColor=#ffffff;" vertex="1" connectable="0" parent="2eYeX1Lvd2iA7qmvY2sF-31">
          <mxGeometry x="-0.0952" y="-1" relative="1" as="geometry">
            <mxPoint as="offset"/>
          </mxGeometry>
        </mxCell>
        <mxCell id="2eYeX1Lvd2iA7qmvY2sF-32" value="" style="ellipse;whiteSpace=wrap;html=1;aspect=fixed;strokeWidth=2;fillColor=#1ba1e2;strokeColor=#006EAF;fontColor=#ffffff;" parent="1" vertex="1">
          <mxGeometry x="623" y="368" width="20" height="20" as="geometry"/>
        </mxCell>
        <mxCell id="2eYeX1Lvd2iA7qmvY2sF-33" value="" style="endArrow=classic;html=1;strokeColor=#000000;strokeWidth=1;entryX=0.15;entryY=-0.15;entryDx=0;entryDy=0;entryPerimeter=0;" parent="1" target="2eYeX1Lvd2iA7qmvY2sF-32" edge="1">
          <mxGeometry width="50" height="50" relative="1" as="geometry">
            <mxPoint x="520" y="170" as="sourcePoint"/>
            <mxPoint x="630" y="360" as="targetPoint"/>
          </mxGeometry>
        </mxCell>
        <mxCell id="tTkCAmkSZLz3tP1ibJDq-21" value="branch" style="text;html=1;align=center;verticalAlign=middle;resizable=0;points=[];labelBackgroundColor=#ffffff;" vertex="1" connectable="0" parent="2eYeX1Lvd2iA7qmvY2sF-33">
          <mxGeometry x="0.2628" y="2" relative="1" as="geometry">
            <mxPoint x="-33.62" y="-73.05" as="offset"/>
          </mxGeometry>
        </mxCell>
        <mxCell id="2eYeX1Lvd2iA7qmvY2sF-34" value="" style="endArrow=classic;html=1;strokeColor=#000000;strokeWidth=1;" parent="1" edge="1">
          <mxGeometry width="50" height="50" relative="1" as="geometry">
            <mxPoint x="617" y="388" as="sourcePoint"/>
            <mxPoint x="527" y="450" as="targetPoint"/>
          </mxGeometry>
        </mxCell>
        <mxCell id="tTkCAmkSZLz3tP1ibJDq-27" value="merg" style="text;html=1;align=center;verticalAlign=middle;resizable=0;points=[];labelBackgroundColor=#ffffff;" vertex="1" connectable="0" parent="2eYeX1Lvd2iA7qmvY2sF-34">
          <mxGeometry x="-0.0509" y="-1" relative="1" as="geometry">
            <mxPoint as="offset"/>
          </mxGeometry>
        </mxCell>
        <mxCell id="2eYeX1Lvd2iA7qmvY2sF-35" value="" style="ellipse;whiteSpace=wrap;html=1;aspect=fixed;strokeWidth=2;fillColor=#e51400;strokeColor=#B20000;fontColor=#ffffff;" parent="1" vertex="1">
          <mxGeometry x="750" y="145" width="20" height="20" as="geometry"/>
        </mxCell>
        <mxCell id="2eYeX1Lvd2iA7qmvY2sF-37" value="" style="endArrow=classic;html=1;strokeColor=#000000;strokeWidth=1;" parent="1" edge="1">
          <mxGeometry width="50" height="50" relative="1" as="geometry">
            <mxPoint x="530" y="154" as="sourcePoint"/>
            <mxPoint x="740" y="154" as="targetPoint"/>
          </mxGeometry>
        </mxCell>
        <mxCell id="2eYeX1Lvd2iA7qmvY2sF-38" value="tag" style="rounded=0;whiteSpace=wrap;html=1;fillColor=#dae8fc;strokeColor=#6c8ebf;" parent="1" vertex="1">
          <mxGeometry x="700" y="90" width="100" height="40" as="geometry"/>
        </mxCell>
        <mxCell id="2eYeX1Lvd2iA7qmvY2sF-39" value="" style="ellipse;whiteSpace=wrap;html=1;aspect=fixed;strokeWidth=2;fillColor=#e51400;strokeColor=#B20000;fontColor=#ffffff;" parent="1" vertex="1">
          <mxGeometry x="750" y="449" width="20" height="20" as="geometry"/>
        </mxCell>
        <mxCell id="2eYeX1Lvd2iA7qmvY2sF-40" value="" style="endArrow=classic;html=1;strokeColor=#000000;strokeWidth=1;" parent="1" edge="1">
          <mxGeometry width="50" height="50" relative="1" as="geometry">
            <mxPoint x="532" y="460" as="sourcePoint"/>
            <mxPoint x="740" y="460" as="targetPoint"/>
          </mxGeometry>
        </mxCell>
        <mxCell id="tTkCAmkSZLz3tP1ibJDq-2" value="" style="ellipse;whiteSpace=wrap;html=1;aspect=fixed;strokeWidth=2;fillColor=#a0522d;strokeColor=#6D1F00;fontColor=#ffffff;" vertex="1" parent="1">
          <mxGeometry x="160" y="215" width="20" height="20" as="geometry"/>
        </mxCell>
        <mxCell id="tTkCAmkSZLz3tP1ibJDq-3" value="" style="endArrow=classic;html=1;strokeColor=#000000;strokeWidth=1;" edge="1" parent="1">
          <mxGeometry width="50" height="50" relative="1" as="geometry">
            <mxPoint x="264" y="200" as="sourcePoint"/>
            <mxPoint x="184" y="220" as="targetPoint"/>
          </mxGeometry>
        </mxCell>
        <mxCell id="tTkCAmkSZLz3tP1ibJDq-11" value="branch" style="text;html=1;align=center;verticalAlign=middle;resizable=0;points=[];labelBackgroundColor=#ffffff;" vertex="1" connectable="0" parent="tTkCAmkSZLz3tP1ibJDq-3">
          <mxGeometry x="0.0118" y="-2" relative="1" as="geometry">
            <mxPoint as="offset"/>
          </mxGeometry>
        </mxCell>
        <mxCell id="tTkCAmkSZLz3tP1ibJDq-4" value="" style="ellipse;whiteSpace=wrap;html=1;aspect=fixed;strokeWidth=2;fillColor=#a0522d;strokeColor=#6D1F00;fontColor=#ffffff;" vertex="1" parent="1">
          <mxGeometry x="160" y="315" width="20" height="20" as="geometry"/>
        </mxCell>
        <mxCell id="tTkCAmkSZLz3tP1ibJDq-5" value="" style="endArrow=classic;html=1;strokeColor=#000000;strokeWidth=1;" edge="1" parent="1">
          <mxGeometry width="50" height="50" relative="1" as="geometry">
            <mxPoint x="169" y="242" as="sourcePoint"/>
            <mxPoint x="169" y="312" as="targetPoint"/>
          </mxGeometry>
        </mxCell>
        <mxCell id="tTkCAmkSZLz3tP1ibJDq-12" value="commit" style="text;html=1;align=center;verticalAlign=middle;resizable=0;points=[];labelBackgroundColor=#ffffff;" vertex="1" connectable="0" parent="tTkCAmkSZLz3tP1ibJDq-5">
          <mxGeometry y="2" relative="1" as="geometry">
            <mxPoint as="offset"/>
          </mxGeometry>
        </mxCell>
        <mxCell id="tTkCAmkSZLz3tP1ibJDq-6" value="" style="endArrow=classic;html=1;strokeColor=#000000;strokeWidth=1;" edge="1" parent="1">
          <mxGeometry width="50" height="50" relative="1" as="geometry">
            <mxPoint x="186" y="321" as="sourcePoint"/>
            <mxPoint x="264" y="301" as="targetPoint"/>
          </mxGeometry>
        </mxCell>
        <mxCell id="tTkCAmkSZLz3tP1ibJDq-13" value="commit" style="text;html=1;align=center;verticalAlign=middle;resizable=0;points=[];labelBackgroundColor=#ffffff;" vertex="1" connectable="0" parent="tTkCAmkSZLz3tP1ibJDq-6">
          <mxGeometry x="0.0839" y="-3" relative="1" as="geometry">
            <mxPoint as="offset"/>
          </mxGeometry>
        </mxCell>
        <mxCell id="tTkCAmkSZLz3tP1ibJDq-7" value="" style="ellipse;whiteSpace=wrap;html=1;aspect=fixed;strokeWidth=2;fillColor=#a0522d;strokeColor=#6D1F00;fontColor=#ffffff;" vertex="1" parent="1">
          <mxGeometry x="161" y="413" width="20" height="20" as="geometry"/>
        </mxCell>
        <mxCell id="tTkCAmkSZLz3tP1ibJDq-8" value="" style="endArrow=classic;html=1;strokeColor=#000000;strokeWidth=1;" edge="1" parent="1">
          <mxGeometry width="50" height="50" relative="1" as="geometry">
            <mxPoint x="170" y="340" as="sourcePoint"/>
            <mxPoint x="170" y="410" as="targetPoint"/>
          </mxGeometry>
        </mxCell>
        <mxCell id="tTkCAmkSZLz3tP1ibJDq-9" value="" style="endArrow=classic;html=1;strokeColor=#000000;strokeWidth=1;" edge="1" parent="1">
          <mxGeometry width="50" height="50" relative="1" as="geometry">
            <mxPoint x="187" y="419" as="sourcePoint"/>
            <mxPoint x="265" y="399" as="targetPoint"/>
          </mxGeometry>
        </mxCell>
        <mxCell id="tTkCAmkSZLz3tP1ibJDq-14" value="" style="ellipse;whiteSpace=wrap;html=1;aspect=fixed;strokeWidth=2;fillColor=#f0a30a;strokeColor=#BD7000;fontColor=#ffffff;" vertex="1" parent="1">
          <mxGeometry x="278" y="487" width="20" height="20" as="geometry"/>
        </mxCell>
        <mxCell id="tTkCAmkSZLz3tP1ibJDq-15" value="" style="ellipse;whiteSpace=wrap;html=1;aspect=fixed;strokeWidth=2;fillColor=#60a917;strokeColor=#2D7600;fontColor=#ffffff;" vertex="1" parent="1">
          <mxGeometry x="389" y="457" width="20" height="20" as="geometry"/>
        </mxCell>
        <mxCell id="tTkCAmkSZLz3tP1ibJDq-16" value="" style="endArrow=classic;html=1;strokeColor=#000000;strokeWidth=1;" edge="1" parent="1">
          <mxGeometry width="50" height="50" relative="1" as="geometry">
            <mxPoint x="304" y="493" as="sourcePoint"/>
            <mxPoint x="382" y="473" as="targetPoint"/>
          </mxGeometry>
        </mxCell>
        <mxCell id="tTkCAmkSZLz3tP1ibJDq-28" value="merg" style="text;html=1;align=center;verticalAlign=middle;resizable=0;points=[];labelBackgroundColor=#ffffff;" vertex="1" connectable="0" parent="tTkCAmkSZLz3tP1ibJDq-16">
          <mxGeometry x="-0.0302" y="-1" relative="1" as="geometry">
            <mxPoint as="offset"/>
          </mxGeometry>
        </mxCell>
        <mxCell id="tTkCAmkSZLz3tP1ibJDq-17" value="" style="ellipse;whiteSpace=wrap;html=1;aspect=fixed;strokeWidth=2;fillColor=#a0522d;strokeColor=#6D1F00;fontColor=#ffffff;" vertex="1" parent="1">
          <mxGeometry x="163" y="513" width="20" height="20" as="geometry"/>
        </mxCell>
        <mxCell id="tTkCAmkSZLz3tP1ibJDq-18" value="" style="endArrow=classic;html=1;strokeColor=#000000;strokeWidth=1;" edge="1" parent="1">
          <mxGeometry width="50" height="50" relative="1" as="geometry">
            <mxPoint x="189" y="519" as="sourcePoint"/>
            <mxPoint x="267" y="499" as="targetPoint"/>
          </mxGeometry>
        </mxCell>
        <mxCell id="tTkCAmkSZLz3tP1ibJDq-19" value="" style="endArrow=classic;html=1;strokeColor=#000000;strokeWidth=1;" edge="1" parent="1">
          <mxGeometry width="50" height="50" relative="1" as="geometry">
            <mxPoint x="170.5" y="440" as="sourcePoint"/>
            <mxPoint x="170.5" y="510" as="targetPoint"/>
          </mxGeometry>
        </mxCell>
        <mxCell id="tTkCAmkSZLz3tP1ibJDq-24" value="commit" style="text;html=1;align=center;verticalAlign=middle;resizable=0;points=[];labelBackgroundColor=#ffffff;" vertex="1" connectable="0" parent="tTkCAmkSZLz3tP1ibJDq-19">
          <mxGeometry x="-0.1429" y="1" relative="1" as="geometry">
            <mxPoint as="offset"/>
          </mxGeometry>
        </mxCell>
        <mxCell id="tTkCAmkSZLz3tP1ibJDq-22" value="" style="endArrow=classic;html=1;strokeColor=#000000;strokeWidth=1;" edge="1" parent="1">
          <mxGeometry width="50" height="50" relative="1" as="geometry">
            <mxPoint x="286.5" y="413" as="sourcePoint"/>
            <mxPoint x="286.5" y="483" as="targetPoint"/>
          </mxGeometry>
        </mxCell>
        <mxCell id="tTkCAmkSZLz3tP1ibJDq-23" value="" style="endArrow=classic;html=1;strokeColor=#000000;strokeWidth=1;" edge="1" parent="1">
          <mxGeometry width="50" height="50" relative="1" as="geometry">
            <mxPoint x="396.5" y="383" as="sourcePoint"/>
            <mxPoint x="396.5" y="453" as="targetPoint"/>
          </mxGeometry>
        </mxCell>
      </root>
    </mxGraphModel>
  </diagram>
</mxfile>
